<svg xmlns="http://www.w3.org/2000/svg" width="45" height="46" viewBox="0 0 45 46">
  <g id="social_twit" transform="translate(-0.483 0.15)">
    <ellipse id="Ellipse_139" data-name="Ellipse 139" cx="22.5" cy="23" rx="22.5" ry="23" transform="translate(0.483 -0.15)" fill="#fff" opacity="0.33"/>
    <path id="Path_3173" data-name="Path 3173" d="M527.836,54.949a9.265,9.265,0,0,0,6.626-1.884,4.707,4.707,0,0,1-4.248-3.191h1.969l.011-.075a4.721,4.721,0,0,1-3.568-4.542,4.709,4.709,0,0,0,2.044.549,4.873,4.873,0,0,1-1.986-3.5,4.5,4.5,0,0,1,.625-2.575,12.909,12.909,0,0,0,9.291,4.742c0-.509-.031-.978.005-1.442a4.534,4.534,0,0,1,4.592-4.145,4.481,4.481,0,0,1,3.129,1.3.332.332,0,0,0,.357.1,10,10,0,0,0,2.426-.921c.059-.032.123-.055.244-.109a4.525,4.525,0,0,1-1.878,2.435l.042.09,2.4-.666c-.062.093-.125.194-.194.289a8.741,8.741,0,0,1-1.837,1.874.446.446,0,0,0-.2.426,12.9,12.9,0,0,1-19.613,11.444c-.071-.04-.139-.085-.206-.13-.012-.008-.014-.031-.03-.069" transform="translate(-516.026 -25.112)" fill="#fff"/>
  </g>
</svg>
