<svg xmlns="http://www.w3.org/2000/svg" xmlns:xlink="http://www.w3.org/1999/xlink" width="97" height="96" viewBox="0 0 97 96">
  <defs>
    <clipPath id="clip-path">
      <rect id="Rectangle_5208" data-name="Rectangle 5208" width="59.401" height="52.939" fill="none"/>
    </clipPath>
  </defs>
  <g id="social_rt_big" transform="translate(-0.395 -0.258)">
    <ellipse id="Ellipse_141" data-name="Ellipse 141" cx="48.5" cy="48" rx="48.5" ry="48" transform="translate(0.395 0.259)" fill="#fff" opacity="0.33"/>
    <g id="Group_2988" data-name="Group 2988" transform="translate(18.75 21.789)">
      <g id="Group_2988-2" data-name="Group 2988" clip-path="url(#clip-path)">
        <path id="Path_5248" data-name="Path 5248" d="M34.058,3.067,31.191,16.812c1.5.171,2.96.293,4.407.511A30.181,30.181,0,0,1,47.8,22.008a.793.793,0,0,0,1.119-.02,6.487,6.487,0,1,1,7.49,10.58.912.912,0,0,0-.377.654,15.562,15.562,0,0,1-6.093,13.164,28.314,28.314,0,0,1-13.779,6.007A35.218,35.218,0,0,1,16.74,50.416,22.242,22.242,0,0,1,6.1,42.133,14.549,14.549,0,0,1,3.811,33.45a.887.887,0,0,0-.513-.958A6.374,6.374,0,0,1,.09,25.75a6.526,6.526,0,0,1,5.052-5.271,6.234,6.234,0,0,1,5.385,1.263.673.673,0,0,0,.942.045,31.5,31.5,0,0,1,16.44-5.162c.439-.013.557-.184.639-.579,1-4.8,2.016-9.591,3.022-14.388.309-1.476.816-1.819,2.276-1.528,3.266.651,6.535,1.292,9.8,1.945a.777.777,0,0,0,.912-.328,4.434,4.434,0,0,1,5.4-1.33,4.556,4.556,0,0,1,2.476,4.945,4.457,4.457,0,0,1-8.684.182c-.073-.264-.329-.626-.557-.674-2.95-.63-5.911-1.211-8.869-1.8a1.707,1.707,0,0,0-.268,0M44.326,31.755a4.459,4.459,0,1,0-8.917-.085,4.731,4.731,0,0,0,4.733,4.6,4.444,4.444,0,0,0,4.184-4.52M19.043,27.017a4.447,4.447,0,1,0,4.47,4.457,4.451,4.451,0,0,0-4.47-4.457m10.674,20.27c1.059-.077,2.129-.081,3.172-.25a12.685,12.685,0,0,0,3.073-.8c1.537-.677,2.97-1.588,4.488-2.312a.934.934,0,0,0,.562-1.258,1.019,1.019,0,0,0-1.2-.811,2.121,2.121,0,0,0-.977.4c-4.741,3.557-13.266,3.619-18.189.044-.195-.141-.406-.362-.612-.365a2.137,2.137,0,0,0-1.258.214,1.525,1.525,0,0,0-.366,1.144c.014.264.336.569.594.754a17.7,17.7,0,0,0,10.712,3.234" transform="translate(0 0)" fill="#fff"/>
      </g>
    </g>
  </g>
</svg>
