<svg xmlns="http://www.w3.org/2000/svg" width="95" height="96" viewBox="0 0 95 96">
  <g id="social_twit_big" transform="translate(0.237 -0.258)">
    <ellipse id="Ellipse_139" data-name="Ellipse 139" cx="47.5" cy="48" rx="47.5" ry="48" transform="translate(-0.237 0.259)" fill="#fff" opacity="0.33"/>
    <path id="Path_3173" data-name="Path 3173" d="M527.836,72.8a19.564,19.564,0,0,0,13.991-3.979,9.94,9.94,0,0,1-8.97-6.738h4.157q.011-.079.023-.158c-4.656-1.459-7.162-4.6-7.534-9.591a9.943,9.943,0,0,0,4.315,1.16,10.29,10.29,0,0,1-4.193-7.386,9.491,9.491,0,0,1,1.319-5.437,27.258,27.258,0,0,0,19.618,10.013c0-1.075-.066-2.065.011-3.044a9.575,9.575,0,0,1,9.7-8.752,9.461,9.461,0,0,1,6.608,2.737.7.7,0,0,0,.753.211,21.113,21.113,0,0,0,5.123-1.945c.125-.068.26-.116.515-.23A9.556,9.556,0,0,1,569.3,44.8l.089.191,5.065-1.406c-.132.2-.264.409-.409.611a18.459,18.459,0,0,1-3.88,3.957.942.942,0,0,0-.422.9c.343,10.748-6.043,21.35-15.734,25.6-8.732,3.833-17.36,3.319-25.68-1.439-.149-.085-.293-.179-.436-.275-.025-.017-.03-.065-.063-.145" transform="translate(-504.194 -9.788)" fill="#fff"/>
  </g>
</svg>
