<svg xmlns="http://www.w3.org/2000/svg" width="94" height="96" viewBox="0 0 94 96">
  <g id="social_tg_big" transform="translate(-0.259 -0.258)">
    <ellipse id="Ellipse_140" data-name="Ellipse 140" cx="47" cy="48" rx="47" ry="48" transform="translate(0.259 0.259)" fill="#fff" opacity="0.33"/>
    <path id="Path_3172" data-name="Path 3172" d="M1064.393,7.724c-.342,1.542-.694,3.081-1.024,4.626q-3.761,17.612-7.516,35.226c-.183.859-.34,1.725-.566,2.573-.739,2.795-2.778,3.5-5.121,1.791q-6.015-4.4-12.024-8.806c-1.172-.858-1.17-.861-2.2.125q-2.923,2.793-5.844,5.588a3.166,3.166,0,0,1-2.342.959c.054-.825.1-1.633.162-2.441.254-3.584.5-7.168.783-10.749a1.337,1.337,0,0,1,.418-.8q12.143-10.938,24.309-21.851c.071-.064.167-.113.211-.192.157-.281.3-.572.443-.859a3.221,3.221,0,0,0-1.043-.181,3.106,3.106,0,0,0-1.084.49q-15.088,9.428-30.161,18.879a1.512,1.512,0,0,1-1.416.194c-4.164-1.325-8.344-2.6-12.509-3.92a5.658,5.658,0,0,1-1.577-.779,1.219,1.219,0,0,1-.166-2.052,6.43,6.43,0,0,1,1.943-1.27c3.92-1.554,7.864-3.046,11.8-4.553q20.207-7.736,40.418-15.463a4.677,4.677,0,0,1,1.213-.312,2.375,2.375,0,0,1,2.78,1.973c.029.109.075.214.113.32Z" transform="translate(-992.747 20.685)" fill="#fff"/>
  </g>
</svg>
