<svg xmlns="http://www.w3.org/2000/svg" width="46" height="46" viewBox="0 0 46 46">
  <g id="social_yt" transform="translate(0.05 0.15)">
    <circle id="Ellipse_141" data-name="Ellipse 141" cx="23" cy="23" r="23" transform="translate(-0.05 -0.15)" fill="#fff" opacity="0.33"/>
    <g id="Group_1764" data-name="Group 1764" transform="translate(8.007 11.648)">
      <path id="Path_3170" data-name="Path 3170" d="M1539.1,23.953c-.038.6-.077,1.191-.114,1.787a14.12,14.12,0,0,1-.351,2.693,4.417,4.417,0,0,1-3.7,3.6,18.165,18.165,0,0,1-2.451.2c-2.673.091-5.347.237-8.019.215-3.3-.028-6.6-.188-9.9-.326a5.422,5.422,0,0,1-2.8-.816,4.544,4.544,0,0,1-1.878-2.852,20.278,20.278,0,0,1-.42-4.4,66.546,66.546,0,0,1,.191-8.741,6.105,6.105,0,0,1,1.16-3.256,4.122,4.122,0,0,1,2.891-1.646c1.545-.15,3.1-.256,4.651-.286,3.117-.06,6.236-.1,9.354-.065,2.209.024,4.419.153,6.625.284a4.494,4.494,0,0,1,3.5,1.838,4.956,4.956,0,0,1,.9,2.327c.148,1.108.209,2.227.306,3.341.021.239.039.479.058.718Zm-14.188-12.261c-2.73.066-4.815.1-6.9.172-1.264.042-2.528.1-3.787.218a2.686,2.686,0,0,0-2.485,1.9,9.662,9.662,0,0,0-.45,2.672,75.621,75.621,0,0,0,.008,9.179,17.567,17.567,0,0,0,.341,2.371,2.5,2.5,0,0,0,.7,1.34,2.985,2.985,0,0,0,1.858.78c1.018.1,2.038.184,3.06.224,4.662.186,9.324.23,13.987.01,1.118-.053,2.239-.105,3.35-.233a2.466,2.466,0,0,0,2.135-1.671,9.449,9.449,0,0,0,.515-2.921,77.608,77.608,0,0,0,.049-7.935,14.237,14.237,0,0,0-.391-3.53,2.864,2.864,0,0,0-.937-1.557,3.626,3.626,0,0,0-2.145-.676c-3.183-.131-6.367-.243-8.909-.339" transform="translate(-1509.411 -10.043)" fill="#fff"/>
      <path id="Path_3171" data-name="Path 3171" d="M1662.113,99.239c0-1.14,0-2.279,0-3.419A1.211,1.211,0,0,1,1664,94.685c2.11,1.148,4.213,2.308,6.321,3.458a1.227,1.227,0,0,1-.018,2.26q-3.15,1.687-6.3,3.38a1.214,1.214,0,0,1-1.9-1.154c0-1.13,0-2.26,0-3.39m6.637.024-4.884-2.673v5.3l4.884-2.625" transform="translate(-1651.031 -88.357)" fill="#fff"/>
    </g>
  </g>
</svg>
