<svg xmlns="http://www.w3.org/2000/svg" width="97" height="96" viewBox="0 0 97 96">
  <g id="social_yt_big" transform="translate(0.245 -0.258)">
    <ellipse id="Ellipse_141" data-name="Ellipse 141" cx="48.5" cy="48" rx="48.5" ry="48" transform="translate(-0.245 0.259)" fill="#fff" opacity="0.33"/>
    <g id="Group_1764" data-name="Group 1764" transform="translate(16.673 24.607)">
      <path id="Path_3170" data-name="Path 3170" d="M1572.095,39.415c-.081,1.258-.163,2.515-.241,3.773a29.81,29.81,0,0,1-.741,5.685c-1.068,4.126-3.5,6.863-7.8,7.6a38.357,38.357,0,0,1-5.175.413c-5.644.192-11.29.5-16.933.453-6.969-.059-13.936-.4-20.9-.688a11.448,11.448,0,0,1-5.916-1.722,9.594,9.594,0,0,1-3.966-6.022,42.814,42.814,0,0,1-.887-9.293,140.46,140.46,0,0,1,.4-18.457,12.89,12.89,0,0,1,2.45-6.876,8.7,8.7,0,0,1,6.1-3.475c3.263-.317,6.544-.54,9.821-.6,6.583-.127,13.168-.206,19.751-.136,4.665.05,9.33.323,13.989.6a9.49,9.49,0,0,1,7.381,3.88,10.467,10.467,0,0,1,1.894,4.914c.312,2.339.441,4.7.647,7.055.044.505.082,1.011.123,1.516Zm-29.959-25.889c-5.765.139-10.168.215-14.569.363-2.668.089-5.339.218-8,.46a5.672,5.672,0,0,0-5.247,4.005,20.409,20.409,0,0,0-.949,5.643,159.7,159.7,0,0,0,.018,19.382,37.111,37.111,0,0,0,.72,5.006,5.288,5.288,0,0,0,1.477,2.83,6.3,6.3,0,0,0,3.924,1.647c2.15.205,4.3.388,6.461.474,9.844.393,19.689.487,29.534.02,2.36-.112,4.727-.222,7.073-.491a5.207,5.207,0,0,0,4.509-3.529,19.952,19.952,0,0,0,1.088-6.168,163.888,163.888,0,0,0,.1-16.756,30.061,30.061,0,0,0-.827-7.454,6.049,6.049,0,0,0-1.978-3.287,7.658,7.658,0,0,0-4.53-1.428c-6.722-.276-13.445-.514-18.811-.715" transform="translate(-1509.411 -10.043)" fill="#fff"/>
      <path id="Path_3171" data-name="Path 3171" d="M1662.115,104.523c0-2.406-.005-4.813,0-7.22a2.558,2.558,0,0,1,3.993-2.4c4.455,2.423,8.9,4.873,13.348,7.3a2.591,2.591,0,0,1-.039,4.773q-6.652,3.562-13.3,7.137c-2.084,1.115-4-.057-4.005-2.436s0-4.772,0-7.159m14.014.051-10.313-5.645v11.188l10.313-5.544" transform="translate(-1638.714 -81.546)" fill="#fff"/>
    </g>
  </g>
</svg>
