<svg xmlns="http://www.w3.org/2000/svg" xmlns:xlink="http://www.w3.org/1999/xlink" width="22.502" height="22.546" viewBox="0 0 22.502 22.546">
  <defs>
    <clipPath id="clip-path">
      <rect id="Rectangle_5210" data-name="Rectangle 5210" width="22.547" height="22.502" fill="#450234"/>
    </clipPath>
  </defs>
  <g id="arrow_closed" transform="translate(0 22.546) rotate(-90)">
    <g id="Group_2996" data-name="Group 2996" clip-path="url(#clip-path)">
      <path id="Path_5249" data-name="Path 5249" d="M11.934,0H10.613a1.212,1.212,0,0,1-.17.036A10.742,10.742,0,0,0,5.524,1.585,11.105,11.105,0,0,0,.176,9.316C.1,9.738.058,10.167,0,10.593v1.318c.018.158.036.316.054.475a11.054,11.054,0,0,0,2.762,6.286A11.046,11.046,0,0,0,10.8,22.489a10.736,10.736,0,0,0,6.217-1.568,11.086,11.086,0,0,0,5.353-7.732c.079-.422.118-.851.176-1.277V10.593c-.018-.158-.036-.316-.054-.474a11.105,11.105,0,0,0-2.831-6.368A11.063,11.063,0,0,0,13.215.176C12.791.1,12.361.058,11.934,0M9.713,11.254a2.567,2.567,0,0,1,.259.189q1.854,1.846,3.7,3.7a2.621,2.621,0,0,1,.208.226.921.921,0,0,1-.285,1.393.948.948,0,0,1-1.194-.237q-2.243-2.235-4.483-4.472a.978.978,0,0,1,0-1.594l4.436-4.426a.952.952,0,1,1,1.335,1.32q-1.86,1.856-3.721,3.711a2.729,2.729,0,0,1-.26.193" transform="translate(0 -0.001)" fill="#450234"/>
    </g>
  </g>
</svg>
