<svg xmlns="http://www.w3.org/2000/svg" xmlns:xlink="http://www.w3.org/1999/xlink" width="46" height="46" viewBox="0 0 46 46">
  <defs>
    <clipPath id="clip-path">
      <rect id="Rectangle_5208" data-name="Rectangle 5208" width="28.131" height="25.071" fill="none"/>
    </clipPath>
  </defs>
  <g id="social_rt" transform="translate(0.05 0.15)">
    <circle id="Ellipse_141" data-name="Ellipse 141" cx="23" cy="23" r="23" transform="translate(-0.05 -0.15)" fill="#fff" opacity="0.33"/>
    <g id="Group_2988" data-name="Group 2988" transform="translate(8.884 10.314)">
      <g id="Group_2988-2" data-name="Group 2988" clip-path="url(#clip-path)">
        <path id="Path_5248" data-name="Path 5248" d="M16.129,1.452,14.772,7.962c.71.081,1.4.139,2.087.242a14.293,14.293,0,0,1,5.78,2.219.376.376,0,0,0,.53-.009,3.072,3.072,0,1,1,3.547,5.011.432.432,0,0,0-.179.31,7.37,7.37,0,0,1-2.886,6.234,13.409,13.409,0,0,1-6.525,2.845,16.679,16.679,0,0,1-9.2-.936,10.533,10.533,0,0,1-5.039-3.923A6.89,6.89,0,0,1,1.8,15.841a.42.42,0,0,0-.243-.453A3.018,3.018,0,0,1,.042,12.195,3.091,3.091,0,0,1,2.435,9.7a2.952,2.952,0,0,1,2.55.6.319.319,0,0,0,.446.021,14.92,14.92,0,0,1,7.785-2.445c.208-.006.264-.087.3-.274.472-2.272.955-4.542,1.431-6.814.147-.7.386-.862,1.078-.724,1.547.309,3.1.612,4.642.921A.368.368,0,0,0,21.1.827,2.1,2.1,0,0,1,23.66.2,2.158,2.158,0,0,1,24.833,2.54a2.111,2.111,0,0,1-4.113.086c-.035-.125-.156-.3-.264-.319-1.4-.3-2.8-.573-4.2-.853a.809.809,0,0,0-.127,0m4.862,13.586A2.112,2.112,0,1,0,16.769,15a2.241,2.241,0,0,0,2.241,2.181,2.1,2.1,0,0,0,1.982-2.141M9.019,12.795a2.106,2.106,0,1,0,2.117,2.111,2.108,2.108,0,0,0-2.117-2.111m5.055,9.6c.5-.036,1.008-.038,1.5-.118a6.008,6.008,0,0,0,1.455-.377c.728-.321,1.406-.752,2.125-1.095a.442.442,0,0,0,.266-.6.483.483,0,0,0-.568-.384,1,1,0,0,0-.463.191,7.955,7.955,0,0,1-8.614.021c-.092-.067-.192-.171-.29-.173a1.012,1.012,0,0,0-.6.1.722.722,0,0,0-.173.542c.006.125.159.27.281.357a8.381,8.381,0,0,0,5.073,1.531" transform="translate(0 0)" fill="#fff"/>
      </g>
    </g>
  </g>
</svg>
