<svg xmlns="http://www.w3.org/2000/svg" width="45" height="46" viewBox="0 0 45 46">
  <g id="social_tg" transform="translate(-0.216 0.15)">
    <ellipse id="Ellipse_140" data-name="Ellipse 140" cx="22.5" cy="23" rx="22.5" ry="23" transform="translate(0.216 -0.15)" fill="#fff" opacity="0.33"/>
    <path id="Path_3172" data-name="Path 3172" d="M1033.463,5.722c-.162.73-.329,1.459-.485,2.191q-1.781,8.341-3.559,16.682c-.087.407-.161.817-.268,1.218-.35,1.324-1.316,1.659-2.425.848q-2.849-2.083-5.694-4.17c-.555-.407-.554-.408-1.042.059q-1.384,1.323-2.768,2.646a1.5,1.5,0,0,1-1.109.454c.026-.39.049-.773.077-1.156.12-1.7.238-3.394.371-5.091a.634.634,0,0,1,.2-.38q5.751-5.18,11.512-10.348c.034-.03.079-.054.1-.091.074-.133.141-.271.21-.407a1.525,1.525,0,0,0-.494-.086,1.471,1.471,0,0,0-.513.232q-7.145,4.465-14.284,8.94a.716.716,0,0,1-.671.092c-1.972-.627-3.951-1.232-5.924-1.856a2.679,2.679,0,0,1-.747-.369.577.577,0,0,1-.079-.972,3.046,3.046,0,0,1,.92-.6c1.856-.736,3.724-1.442,5.589-2.156q9.57-3.664,19.141-7.323a2.214,2.214,0,0,1,.574-.148,1.125,1.125,0,0,1,1.317.934c.014.052.035.1.053.152Z" transform="translate(-999.171 7.726)" fill="#fff"/>
  </g>
</svg>
